<?xml version="1.0" encoding="UTF-8" standalone="no"?>
<!-- Created with Inkscape (http://www.inkscape.org/) -->

<svg
   width="1920"
   height="640"
   viewBox="0 0 507.99999 169.33333"
   version="1.1"
   id="svg1"
   sodipodi:docname="banner.svg"
   inkscape:version="1.3.2 (091e20ef0f, 2023-11-25)"
   inkscape:export-filename="banner.png"
   inkscape:export-xdpi="96"
   inkscape:export-ydpi="96"
   xmlns:inkscape="http://www.inkscape.org/namespaces/inkscape"
   xmlns:sodipodi="http://sodipodi.sourceforge.net/DTD/sodipodi-0.dtd"
   xmlns="http://www.w3.org/2000/svg"
   xmlns:svg="http://www.w3.org/2000/svg">
  <sodipodi:namedview
     id="namedview1"
     pagecolor="#ffffff"
     bordercolor="#000000"
     borderopacity="0.25"
     inkscape:showpageshadow="2"
     inkscape:pageopacity="0.0"
     inkscape:pagecheckerboard="0"
     inkscape:deskcolor="#d1d1d1"
     inkscape:document-units="mm"
     inkscape:zoom="0.51640296"
     inkscape:cx="844.3019"
     inkscape:cy="520.91103"
     inkscape:window-width="2560"
     inkscape:window-height="1523"
     inkscape:window-x="0"
     inkscape:window-y="0"
     inkscape:window-maximized="1"
     inkscape:current-layer="layer1"
     showgrid="false" />
  <defs
     id="defs1" />
  <g
     inkscape:label="Layer 1"
     inkscape:groupmode="layer"
     id="layer1">
    <rect
       style="fill:#000000;fill-opacity:1;stroke-width:1.27035;stroke-linecap:round;stroke-linejoin:round;paint-order:markers fill stroke"
       id="rect1"
       width="507.8349"
       height="169.33333"
       x="0.1651001"
       y="-2.0028617e-09" />
    <g
       id="g1"
       transform="matrix(2.0708231,0,0,2.0708231,-433.60688,146.32417)">
      <path
         id="path1"
         d="m 241.03683,-27.771726 v -22.049669 h 4.77238 v 22.049669 z m -7.40974,-20.097044 v -4.51873 h 19.80953 v 4.51873 z m 23.82096,20.097044 -5.3855,-17.67593 h 4.66336 l 3.7592,13.482813 h -1.4097 l 4.3367,-13.482813 h 3.83223 l 4.33669,13.482813 h -1.3723 l 3.7592,-13.482813 h 4.51732 l -5.42149,17.67593 h -4.19312 l -4.19347,-12.651669 h 1.30211 l -4.2291,12.651669 z m 30.43661,0.362655 c -1.75966,0 -3.30165,-0.373591 -4.62739,-1.121833 -1.32574,-0.770114 -2.3495,-1.842206 -3.07305,-3.216275 -0.72213,-1.374069 -1.08443,-2.989086 -1.08443,-4.843991 0,-1.83127 0.3623,-3.433939 1.08443,-4.807656 0.72355,-1.397352 1.74731,-2.482144 3.07305,-3.253669 1.32574,-0.795161 2.86773,-1.192036 4.62739,-1.192036 1.78329,0 3.32528,0.396875 4.62597,1.192036 1.32574,0.796572 2.34986,1.891947 3.07305,3.2893 0.72214,1.374069 1.08479,2.953103 1.08479,4.736394 0,0.264583 -0.0127,0.529167 -0.0374,0.795161 0,0.240947 -0.0233,0.445206 -0.0716,0.614539 H 282.968 v -3.542947 h 10.01254 l -0.72319,1.698978 c 0,-1.493661 -0.36125,-2.710392 -1.08338,-3.650192 -0.69991,-0.9398 -1.79529,-1.4097 -3.2893,-1.4097 -1.3021,0 -2.3495,0.409222 -3.14607,1.229078 -0.79517,0.795161 -1.19204,1.867253 -1.19204,3.216275 v 1.915583 c 0,1.422047 0.39687,2.542469 1.19204,3.362325 0.81985,0.795161 1.92793,1.192036 3.32669,1.192036 1.22767,0 2.19251,-0.252236 2.89101,-0.759178 0.69886,-0.505883 1.30105,-1.131358 1.80799,-1.8796 l 3.2893,1.8796 c -0.79481,1.470378 -1.8796,2.603147 -3.25332,3.398308 -1.34902,0.771525 -2.98908,1.157464 -4.9156,1.157464 z m 22.30225,-18.43546 c 1.20439,0 2.16888,0.205317 2.89102,0.614539 0.74683,0.409222 1.30245,0.963436 1.66335,1.661936 0.38593,0.700264 0.63817,1.495072 0.75917,2.386894 0.11995,0.866775 0.18063,1.770592 0.18063,2.710392 v 10.699044 h -4.73499 v -10.734675 c 0,-1.084439 -0.21766,-1.807986 -0.65052,-2.16923 -0.41063,-0.360892 -0.9398,-0.542925 -1.59138,-0.542925 -0.60219,0 -1.21673,0.121355 -1.84256,0.362655 -0.62688,0.216253 -1.21673,0.541514 -1.772,0.975431 -0.52917,0.409222 -0.98813,0.879122 -1.37266,1.4097 l -0.61454,-2.458156 h 1.19204 v 13.1572 h -4.73499 v -17.67593 h 3.54295 l 0.97579,3.398308 -1.51871,-0.07161 c 0.62688,-0.723547 1.33808,-1.361722 2.13324,-1.916994 0.81845,-0.553861 1.68663,-0.988131 2.60174,-1.300692 0.91616,-0.337608 1.8796,-0.505883 2.89242,-0.505883 z m 16.7005,18.398066 c -1.80798,0 -3.24273,-0.4699 -4.30247,-1.4097 -1.03611,-0.963083 -1.55434,-2.494139 -1.55434,-4.589992 v -11.783835 l -0.0716,-0.217664 0.97579,-4.156075 h 3.83081 v 15.398044 c 0,0.771878 0.18203,1.338086 0.54293,1.69933 0.38593,0.337609 0.86677,0.505531 1.44568,0.505531 0.38594,0 0.73448,-0.02328 1.04845,-0.07161 0.31292,-0.07303 0.58985,-0.144639 0.83115,-0.217664 v 4.411133 c -0.38594,0.144639 -0.79516,0.252236 -1.22908,0.325261 -0.43427,0.07161 -0.94015,0.107245 -1.5173,0.107245 z m -8.60319,-13.627452 v -4.373739 h 11.34957 v 4.373739 z m 20.49427,11.676238 -7.04885,-16.049977 h 4.84399 l 6.54297,14.929555 z m -4.04742,8.494183 10.80806,-24.54416 h 4.84364 l -10.80911,24.54416 z m 22.66315,-6.86823 v -22.049669 h 4.77238 v 22.049669 z m -7.40974,-20.097044 v -4.51873 h 19.80812 v 4.51873 z m 23.82097,20.097044 -5.38551,-17.67593 h 4.66196 l 3.7592,13.482813 h -1.4097 l 4.33811,-13.482813 h 3.83222 l 4.3367,13.482813 h -1.37231 l 3.7592,-13.482813 h 4.51732 l -5.42149,17.67593 h -4.19311 l -4.19347,-12.651669 h 1.3021 l -4.2291,12.651669 z"
         style="fill:#ffffff;fill-opacity:1;fill-rule:nonzero;stroke:none;stroke-width:0.352778" />
      <path
         id="path2"
         d="m 404.81532,-45.770095 c -0.60502,0.0014 -1.21673,0.06068 -1.82845,0.184503 -4.35046,0.880533 -7.47748,4.703233 -7.47748,9.143294 0,4.43865 3.12702,8.262761 7.47748,9.143294 4.35045,0.879475 8.71749,-1.42875 10.44257,-5.518855 h 16.74319 c 0.15981,0 0.29069,-0.130881 0.29069,-0.290689 v -6.668558 c 0,-0.159809 -0.13088,-0.289278 -0.29069,-0.289278 h -16.74319 c -1.48272,-3.51543 -4.91666,-5.713236 -8.61412,-5.703711 z m 0.0194,4.790017 c 2.50507,0 4.53637,2.031294 4.53637,4.53778 0,2.505428 -2.0313,4.536722 -4.53637,4.536722 -2.50543,0 -4.53637,-2.031294 -4.53637,-4.536722 0,-2.506486 2.03094,-4.53778 4.53637,-4.53778 z m 23.57966,3.304469 c 0.68192,0 1.23332,0.552803 1.23332,1.233311 0,0.680861 -0.5514,1.233311 -1.23332,1.233311 -0.68086,0 -1.23331,-0.55245 -1.2319,-1.233311 0,-0.680508 0.55104,-1.233311 1.2319,-1.233311 z"
         style="fill:#ffffff;fill-opacity:1;fill-rule:nonzero;stroke:none;stroke-width:0.352778" />
      <path
         id="path3"
         d="m 235.91485,-17.38101 v 10.1187243 h 5.05989 v -1.0114138 h 1.01177 v -4.0474195 h -1.01177 v 4.0474195 h -4.04848 v -4.0474195 h 4.04848 v -1.012825 h 1.01177 v -3.035652 h -1.01177 v 3.035652 h -4.04848 v -3.035652 h 4.04848 v -1.011414 z m 11.13049,-1.011767 v 2.023181 h 1.01283 v -2.023181 z m -1.01177,3.036006 v 1.011413 h 1.01177 v 6.0716585 h -2.02318 v 1.0114138 h 5.05883 v -1.0114138 h -2.02282 v -7.0830715 z m 8.09484,-2.024239 v 3.035652 h -2.02318 v 1.011414 h 2.02318 v 5.0602445 h 1.01283 v 1.0114138 h 2.02282 v -1.0114138 h -2.02282 v -5.0602445 h 2.02282 v -1.011414 h -2.02282 v -3.035652 z m 7.08449,2.024239 v 1.011413 h -1.01283 v 6.0716585 h 1.01283 v 1.0114138 h 4.04706 v -1.0114138 h 1.01177 v -1.0114139 h -1.01177 v 1.0114139 h -4.04706 v -6.0716585 h 4.04706 v 1.011414 h 1.01177 v -1.011414 h -1.01177 v -1.011413 z m 8.09448,0 v 1.011413 h -1.01141 v 6.0716585 h 1.01141 v 1.0114138 h 4.04742 v -1.0114138 h -4.04742 v -6.0716585 h 4.04742 v 6.0716585 h 1.01283 v -6.0716585 h -1.01283 v -1.011413 z m 10.11908,-3.036006 v 2.023181 h 1.01141 v -2.023181 z m -1.01177,3.036006 v 1.011413 h 1.01177 v 6.0716585 h -2.02459 v 1.0114138 h 5.06024 v -1.0114138 h -2.02424 v -7.0830715 z m 6.07166,0 v 8.0944853 h 1.01177 v -6.0716583 h 1.01141 v -1.011414 h 3.03565 v 7.0830723 h 1.01142 v -7.0830723 h -1.01142 v -1.011413 h -3.03565 v 1.011413 h -1.01141 v -1.011413 z m 16.18932,-2.024239 v 10.1187243 h 1.01283 v -5.0588333 h 4.04742 v 5.0588333 h 1.01141 V -17.38101 h -1.01141 v 4.047066 h -4.04742 v -4.047066 z m 9.10731,2.024239 v 1.011413 h -1.01141 v 1.011414 h 1.01141 v -1.011414 h 4.04742 v 2.024239 h -4.04742 v 1.011767 h -1.01141 v 3.0356525 h 1.01141 v 1.0114138 h 3.03601 v -1.0114138 h -3.03601 v -3.0356525 h 4.04742 v 2.0242386 h -1.01141 v 1.0114139 h 1.01141 v 1.0114138 h 1.01283 v -7.0830723 h -1.01283 v -1.011413 z m 7.08343,0 v 8.0944853 h 1.01282 v -6.0716583 h 1.01142 v -1.011414 h 3.03565 v 2.024239 h 1.01141 v -2.024239 h -1.01141 v -1.011413 h -3.03565 v 1.011413 h -1.01142 v -1.011413 z m 13.15473,-3.036006 v 4.047419 h -1.01177 v -1.011413 h -3.03565 v 1.011413 h -1.01141 v 6.0716585 h 1.01141 v -6.0716585 h 3.03565 v 1.011414 h 1.01177 v 4.0488306 h -1.01177 v 1.0114139 h -3.03565 v 1.0114138 h 3.03565 v -1.0114138 h 1.01177 v 1.0114138 h 1.01282 V -18.392777 Z m 3.03565,3.036006 v 7.0830715 h 1.01283 v 1.0114138 h 2.02318 v -1.0114138 h 1.01141 v 1.0114138 h 2.02424 v -1.0114138 h 1.01141 v -7.0830715 h -1.01141 v 7.0830715 h -2.02424 v -6.0716585 h -1.01141 v 6.0716585 h -2.02318 v -7.0830715 z m 9.10731,0 v 1.011413 h -1.01141 v 1.011414 h 1.01141 v -1.011414 h 4.04742 v 2.024239 h -4.04742 v 1.011767 h -1.01141 v 3.0356525 h 1.01141 v 1.0114138 h 3.03601 v -1.0114138 h -3.03601 v -3.0356525 h 4.04742 v 2.0242386 h -1.01141 v 1.0114139 h 1.01141 v 1.0114138 h 1.01283 v -7.0830723 h -1.01283 v -1.011413 z m 7.08343,0 v 8.0944853 h 1.01141 v -6.0716583 h 1.01283 v -1.011414 h 3.03565 v 2.024239 h 1.01176 v -2.024239 h -1.01176 v -1.011413 h -3.03565 v 1.011413 h -1.01283 v -1.011413 z m 9.10731,0 v 1.011413 h 4.04742 v 2.024239 h -4.04742 v -2.024239 h -1.01142 v 6.0716585 h 1.01142 v 1.0114138 h 4.04742 v -1.0114138 h 1.01141 v -1.0114139 h -1.01141 v 1.0114139 h -4.04742 v -3.0356525 h 5.05883 v -3.036006 h -1.01141 v -1.011413 z m 15.17756,-2.024239 v 10.1187243 h 4.04883 v -1.0114138 h 1.01141 v -1.0114139 h 1.01141 v -6.0716576 h -1.01141 v 6.0716576 h -1.01141 v 1.0114139 h -3.03566 v -8.0958965 h 3.03566 v 1.012825 h 1.01141 v -1.012825 h -1.01141 v -1.011414 z m 9.10766,2.024239 v 1.011413 h 4.04706 v 2.024239 h -4.04706 v -2.024239 h -1.01142 v 6.0716585 h 1.01142 v 1.0114138 h 4.04706 v -1.0114138 h 1.01318 v -1.0114139 h -1.01318 v 1.0114139 h -4.04706 v -3.0356525 h 5.06024 v -3.036006 h -1.01318 v -1.011413 z m 7.08307,0 v 3.035652 h 1.01283 v 3.0360056 h 1.01141 v 2.0228277 h 2.02459 v -2.0228277 h 1.01141 v -3.0360056 h 1.01142 v -3.035652 h -1.01142 v 3.035652 h -1.01141 v 3.0360056 h -2.02459 v -3.0360056 h -1.01141 v -3.035652 z m 11.1319,-3.036006 v 2.023181 h 1.01142 v -2.023181 z m -1.01282,3.036006 v 1.011413 h 1.01282 v 6.0716585 h -2.02459 v 1.0114138 h 5.06025 v -1.0114138 h -2.02424 v -7.0830715 z m 7.08307,0 v 1.011413 h -1.01177 v 6.0716585 h 1.01177 v 1.0114138 h 4.04848 v -1.0114138 h 1.01141 v -1.0114139 h -1.01141 v 1.0114139 h -4.04848 v -6.0716585 h 4.04848 v 1.011414 h 1.01141 v -1.011414 h -1.01141 v -1.011413 z m 8.0959,0 v 1.011413 h 4.04742 v 2.024239 h -4.04742 v -2.024239 h -1.01142 v 6.0716585 h 1.01142 v 1.0114138 h 4.04742 v -1.0114138 h 1.01141 v -1.0114139 h -1.01141 v 1.0114139 h -4.04742 v -3.0356525 h 5.05883 v -3.036006 h -1.01141 v -1.011413 z m 8.09448,0 v 1.011413 h -1.01141 v 2.024239 h 1.01141 v 1.011767 h 2.02424 v 1.011414 h 2.02459 v 2.0242385 h -4.04883 v -1.0114139 h -1.01141 v 1.0114139 h 1.01141 v 1.0114138 h 4.04883 v -1.0114138 h 1.01142 v -2.0242385 h -1.01142 v -1.011414 h -2.02459 v -1.011767 h -2.02424 v -2.024239 h 4.04883 v 1.011414 h 1.01142 v -1.011414 h -1.01142 v -1.011413 z"
         style="fill:#ffffff;fill-opacity:1;fill-rule:nonzero;stroke:#ffffff;stroke-width:0.202;stroke-linecap:round;stroke-linejoin:miter;stroke-miterlimit:4;stroke-dasharray:none;stroke-opacity:1" />
    </g>
  </g>
</svg>
